<svg width="42" height="41" viewBox="0 0 42 41" fill="none" xmlns="http://www.w3.org/2000/svg">
<path d="M21.0001 0.166687C18.2642 0.166687 15.5551 0.705557 13.0275 1.75253C10.4999 2.7995 8.20324 4.33408 6.26869 6.26863C2.36168 10.1756 0.166748 15.4747 0.166748 21C0.166748 30.2084 6.14591 38.0209 14.4167 40.7917C15.4584 40.9584 15.7917 40.3125 15.7917 39.75V36.2292C10.0209 37.4792 8.79175 33.4375 8.79175 33.4375C7.83341 31.0209 6.47925 30.375 6.47925 30.375C4.58341 29.0834 6.62508 29.125 6.62508 29.125C8.70841 29.2709 9.81258 31.2709 9.81258 31.2709C11.6251 34.4375 14.6876 33.5 15.8751 33C16.0626 31.6459 16.6042 30.7292 17.1876 30.2084C12.5626 29.6875 7.70841 27.8959 7.70841 19.9584C7.70841 17.6459 8.50008 15.7917 9.85425 14.3125C9.64591 13.7917 8.91675 11.625 10.0626 8.81252C10.0626 8.81252 11.8126 8.25002 15.7917 10.9375C17.4376 10.4792 19.2292 10.25 21.0001 10.25C22.7709 10.25 24.5626 10.4792 26.2084 10.9375C30.1876 8.25002 31.9376 8.81252 31.9376 8.81252C33.0834 11.625 32.3542 13.7917 32.1459 14.3125C33.5001 15.7917 34.2917 17.6459 34.2917 19.9584C34.2917 27.9167 29.4167 29.6667 24.7709 30.1875C25.5209 30.8334 26.2084 32.1042 26.2084 34.0417V39.75C26.2084 40.3125 26.5417 40.9792 27.6042 40.7917C35.8751 38 41.8334 30.2084 41.8334 21C41.8334 18.2641 41.2945 15.5551 40.2476 13.0274C39.2006 10.4998 37.666 8.20318 35.7315 6.26863C33.7969 4.33408 31.5003 2.7995 28.9727 1.75253C26.445 0.705557 23.736 0.166687 21.0001 0.166687Z" fill="white"/>
</svg>
