<svg width="44" height="44" viewBox="0 0 44 44" fill="none" xmlns="http://www.w3.org/2000/svg">
<path fill-rule="evenodd" clip-rule="evenodd" d="M6.375 0.125C4.7174 0.125 3.12769 0.78348 1.95558 1.95558C0.78348 3.12769 0.125 4.7174 0.125 6.375V37.625C0.125 39.2826 0.78348 40.8723 1.95558 42.0444C3.12769 43.2165 4.7174 43.875 6.375 43.875H37.625C39.2826 43.875 40.8723 43.2165 42.0444 42.0444C43.2165 40.8723 43.875 39.2826 43.875 37.625V6.375C43.875 4.7174 43.2165 3.12769 42.0444 1.95558C40.8723 0.78348 39.2826 0.125 37.625 0.125H6.375ZM9.81875 13.5531C10.8092 13.5531 11.759 13.1597 12.4594 12.4594C13.1597 11.759 13.5531 10.8092 13.5531 9.81875C13.5531 8.82833 13.1597 7.87848 12.4594 7.17815C11.759 6.47782 10.8092 6.08438 9.81875 6.08438C8.82833 6.08438 7.87848 6.47782 7.17815 7.17815C6.47782 7.87848 6.08438 8.82833 6.08438 9.81875C6.08438 10.8092 6.47782 11.759 7.17815 12.4594C7.87848 13.1597 8.82833 13.5531 9.81875 13.5531ZM12.9438 37.0406V16.4813H6.69375V37.0406H12.9438ZM17.0937 16.4813H23.3438V19.2344C24.2656 17.7906 26.2906 15.8469 30.0563 15.8469C34.55 15.8469 36.9906 18.825 36.9906 24.4906C36.9906 24.7625 37.0156 26.0031 37.0156 26.0031V37.0375H30.7656V26.0062C30.7656 24.4906 30.4469 21.5125 27.0781 21.5125C23.7063 21.5125 23.4219 25.2563 23.3438 27.7063V37.0375H17.0937V16.4813Z" fill="white"/>
</svg>
