<svg width="26" height="18" viewBox="0 0 26 18" fill="none" xmlns="http://www.w3.org/2000/svg">
<path d="M14.8944 2.36193C14.6389 2.09569 14.4997 1.74355 14.5063 1.3797C14.5129 1.01585 14.6648 0.668683 14.9299 0.411361C15.195 0.154038 15.5527 0.00663854 15.9276 0.000218806C16.3024 -0.00620093 16.6652 0.12886 16.9395 0.376945L24.6568 7.86747C24.9278 8.13081 25.08 8.48778 25.08 8.85997C25.08 9.23215 24.9278 9.58913 24.6568 9.85246L16.9395 17.343C16.8071 17.481 16.6473 17.5917 16.4698 17.6684C16.2923 17.7452 16.1007 17.7865 15.9064 17.7898C15.7121 17.7931 15.5191 17.7584 15.339 17.6878C15.1588 17.6171 14.9951 17.512 14.8577 17.3786C14.7203 17.2453 14.612 17.0864 14.5392 16.9115C14.4664 16.7366 14.4307 16.5493 14.4341 16.3608C14.4375 16.1722 14.4801 15.9862 14.5592 15.8139C14.6382 15.6416 14.7523 15.4866 14.8944 15.358L21.5 9.5H1.44705C1.0633 9.5 0.462946 9.5 5.65943e-05 9.5C-7.07428e-05 9.00001 5.65943e-05 9.23246 5.65943e-05 8.85997C5.65943e-05 8.48748 5.66029e-05 8 0.000246077 7.5C0.463263 7.5 1.0633 7.45549 1.44705 7.45549H20.1422L14.8944 2.36193Z" fill="#348DE7"/>
</svg>
